# xmcd CD database file
# Copyright (C) 1997 Ti Kan
# 
# Track frame offsets:
#     150
#     25530
#     46772
#     61264
#     81022
#     103250
#     118222
#     130065
#     152247
#     171784
#     193130
#     206537
#     250485
# 
# Disc length: 3554 seconds
# 
# Revision: 1
# Processed by: cddbd v1.4b41PL1 Copyright (c) Steve Scherf et al.
# Submitted via: DiscPlay 4.0.4
# 
DISCID=af0de00d
DTITLE=Dante Ramon Ledesma - Dante Ramon Ledesma Ao Vivo
DYEAR=1900
DGENRE=
TTITLE0=Orelhano
TTITLE1=Sobrevivendo
TTITLE2=Homem Rural
TTITLE3=Ciegas Bandeiras
TTITLE4=Iolanda
TTITLE5=El Primer Beso
TTITLE6=ndio Do Uruguai
TTITLE7=Candilejas
TTITLE8=Canci n De Las Simples Cosas
TTITLE9=Memorias Del Che
TTITLE10=Bibiana Sem Terra
TTITLE11=Orelhano
TTITLE12=Isto Aqui, O Que  
EXTD=
EXTT0=Afro-Am rica - Americano Ib rico - Latinamente Iguais
EXTT1=Todavia Cantamos
EXTT2=A Vit ria Do Trigo
EXTT3=A Una Gaivota Herida - No Llores Por Mi Argentina
EXTT4=Borbulhas De Amor - A Mi Manera
EXTT5=
EXTT6=
EXTT7=El DIa Que Me Quieras - Solamente Una Vez - Besame Mucho - Caminito
EXTT8=Mi Tata Esta Viejo - Guri
EXTT9=El Condor Pasa
EXTT10=Anita Garibaldi - Juana Azurduy
EXTT11=Fruto Do Suor - O Grito Dos Livres - Am rica Latina/\nAsa Branca - Pr
EXTT11=a N o Dizer Que N o Falei Das Flores
EXTT12=O Que  , O Que   - Brasil
PLAYORDER=
